<mxfile host="app.diagrams.net" modified="2024-06-08T09:17:25.503Z" agent="Mozilla/5.0 (X11; Linux x86_64) AppleWebKit/537.36 (KHTML, like Gecko) Chrome/124.0.0.0 Safari/537.36" etag="A6SxrP3F28pbGyb7tFcE" version="24.5.2" type="device">
  <diagram name="Page-1" id="wYNXnRxn811InqwVfEfD">
    <mxGraphModel dx="3112" dy="1397" grid="1" gridSize="10" guides="1" tooltips="1" connect="1" arrows="1" fold="1" page="1" pageScale="1" pageWidth="850" pageHeight="1100" math="0" shadow="0">
      <root>
        <mxCell id="0" />
        <mxCell id="1" parent="0" />
        <mxCell id="3ODKdg1uj5AE_0qnP45V-67" value="" style="rounded=1;whiteSpace=wrap;html=1;fillColor=#f8cecc;strokeColor=#b85450;" vertex="1" parent="1">
          <mxGeometry x="300" y="320" width="620" height="370" as="geometry" />
        </mxCell>
        <mxCell id="3ODKdg1uj5AE_0qnP45V-66" value="" style="rounded=1;whiteSpace=wrap;html=1;fillColor=#d5e8d4;strokeColor=#82b366;" vertex="1" parent="1">
          <mxGeometry x="990" y="310" width="750" height="580" as="geometry" />
        </mxCell>
        <mxCell id="3ODKdg1uj5AE_0qnP45V-2" value="storage.albinvass.se" style="text;html=1;align=center;verticalAlign=middle;resizable=0;points=[];autosize=1;strokeColor=none;fillColor=none;" vertex="1" parent="1">
          <mxGeometry x="100" y="506" width="130" height="30" as="geometry" />
        </mxCell>
        <mxCell id="3ODKdg1uj5AE_0qnP45V-28" style="edgeStyle=orthogonalEdgeStyle;rounded=0;orthogonalLoop=1;jettySize=auto;html=1;" edge="1" parent="1" source="3ODKdg1uj5AE_0qnP45V-3" target="3ODKdg1uj5AE_0qnP45V-25">
          <mxGeometry relative="1" as="geometry" />
        </mxCell>
        <mxCell id="3ODKdg1uj5AE_0qnP45V-3" value="" style="image;aspect=fixed;perimeter=ellipsePerimeter;html=1;align=center;shadow=0;dashed=0;spacingTop=3;image=img/lib/active_directory/laptop_client.svg;" vertex="1" parent="1">
          <mxGeometry x="20" y="508.89" width="65" height="72.22" as="geometry" />
        </mxCell>
        <mxCell id="3ODKdg1uj5AE_0qnP45V-26" style="edgeStyle=orthogonalEdgeStyle;rounded=0;orthogonalLoop=1;jettySize=auto;html=1;" edge="1" parent="1" source="3ODKdg1uj5AE_0qnP45V-20" target="3ODKdg1uj5AE_0qnP45V-21">
          <mxGeometry relative="1" as="geometry" />
        </mxCell>
        <mxCell id="3ODKdg1uj5AE_0qnP45V-27" style="edgeStyle=orthogonalEdgeStyle;rounded=0;orthogonalLoop=1;jettySize=auto;html=1;entryX=0.455;entryY=0;entryDx=0;entryDy=0;entryPerimeter=0;" edge="1" parent="1" source="3ODKdg1uj5AE_0qnP45V-20" target="3ODKdg1uj5AE_0qnP45V-25">
          <mxGeometry relative="1" as="geometry">
            <mxPoint x="450" y="439.1100000000001" as="targetPoint" />
          </mxGeometry>
        </mxCell>
        <mxCell id="3ODKdg1uj5AE_0qnP45V-20" value="" style="shape=image;imageAspect=0;aspect=fixed;verticalLabelPosition=bottom;verticalAlign=top;image=https://avatars.githubusercontent.com/u/63284097?s=280&amp;v=4;" vertex="1" parent="1">
          <mxGeometry x="549.11" y="408.22" width="61.78" height="61.78" as="geometry" />
        </mxCell>
        <mxCell id="3ODKdg1uj5AE_0qnP45V-21" value="" style="shape=image;imageAspect=0;aspect=fixed;verticalLabelPosition=bottom;verticalAlign=top;image=https://www.svgrepo.com/show/373924/nginx.svg;imageBorder=none;imageBackground=none;" vertex="1" parent="1">
          <mxGeometry x="540" y="505" width="80" height="80" as="geometry" />
        </mxCell>
        <mxCell id="3ODKdg1uj5AE_0qnP45V-44" style="edgeStyle=orthogonalEdgeStyle;rounded=0;orthogonalLoop=1;jettySize=auto;html=1;" edge="1" parent="1" source="3ODKdg1uj5AE_0qnP45V-22" target="3ODKdg1uj5AE_0qnP45V-31">
          <mxGeometry relative="1" as="geometry" />
        </mxCell>
        <mxCell id="3ODKdg1uj5AE_0qnP45V-48" style="edgeStyle=orthogonalEdgeStyle;rounded=0;orthogonalLoop=1;jettySize=auto;html=1;" edge="1" parent="1" source="3ODKdg1uj5AE_0qnP45V-22" target="3ODKdg1uj5AE_0qnP45V-34">
          <mxGeometry relative="1" as="geometry" />
        </mxCell>
        <mxCell id="3ODKdg1uj5AE_0qnP45V-22" value="&lt;b style=&quot;&quot;&gt;&lt;font style=&quot;font-size: 20px;&quot;&gt;FRPS&lt;/font&gt;&lt;/b&gt;" style="text;html=1;align=center;verticalAlign=middle;resizable=0;points=[];autosize=1;strokeColor=default;fillColor=none;fontSize=34;rounded=1;glass=0;fontFamily=Courier New;" vertex="1" parent="1">
          <mxGeometry x="790" y="520" width="70" height="50" as="geometry" />
        </mxCell>
        <mxCell id="3ODKdg1uj5AE_0qnP45V-29" style="edgeStyle=orthogonalEdgeStyle;rounded=0;orthogonalLoop=1;jettySize=auto;html=1;" edge="1" parent="1" source="3ODKdg1uj5AE_0qnP45V-25" target="3ODKdg1uj5AE_0qnP45V-21">
          <mxGeometry relative="1" as="geometry" />
        </mxCell>
        <mxCell id="3ODKdg1uj5AE_0qnP45V-25" value="" style="verticalLabelPosition=bottom;sketch=0;aspect=fixed;html=1;verticalAlign=top;strokeColor=none;align=center;outlineConnect=0;shape=mxgraph.citrix.firewall;" vertex="1" parent="1">
          <mxGeometry x="330" y="510.9" width="55" height="68.2" as="geometry" />
        </mxCell>
        <mxCell id="3ODKdg1uj5AE_0qnP45V-43" style="edgeStyle=orthogonalEdgeStyle;rounded=0;orthogonalLoop=1;jettySize=auto;html=1;" edge="1" parent="1" source="3ODKdg1uj5AE_0qnP45V-31" target="3ODKdg1uj5AE_0qnP45V-22">
          <mxGeometry relative="1" as="geometry">
            <mxPoint x="830" y="600" as="targetPoint" />
            <Array as="points">
              <mxPoint x="1070" y="620" />
              <mxPoint x="825" y="620" />
            </Array>
          </mxGeometry>
        </mxCell>
        <mxCell id="3ODKdg1uj5AE_0qnP45V-46" value="Authenticated configuration channel" style="edgeLabel;html=1;align=center;verticalAlign=middle;resizable=0;points=[];" vertex="1" connectable="0" parent="3ODKdg1uj5AE_0qnP45V-43">
          <mxGeometry x="0.1182" y="-8" relative="1" as="geometry">
            <mxPoint x="21" y="18" as="offset" />
          </mxGeometry>
        </mxCell>
        <mxCell id="3ODKdg1uj5AE_0qnP45V-47" style="edgeStyle=orthogonalEdgeStyle;rounded=0;orthogonalLoop=1;jettySize=auto;html=1;" edge="1" parent="1" source="3ODKdg1uj5AE_0qnP45V-31" target="3ODKdg1uj5AE_0qnP45V-34">
          <mxGeometry relative="1" as="geometry">
            <Array as="points">
              <mxPoint x="1070" y="450" />
            </Array>
          </mxGeometry>
        </mxCell>
        <mxCell id="3ODKdg1uj5AE_0qnP45V-51" style="edgeStyle=orthogonalEdgeStyle;rounded=0;orthogonalLoop=1;jettySize=auto;html=1;entryX=0;entryY=0.5;entryDx=0;entryDy=0;" edge="1" parent="1" source="3ODKdg1uj5AE_0qnP45V-31" target="3ODKdg1uj5AE_0qnP45V-50">
          <mxGeometry relative="1" as="geometry">
            <Array as="points">
              <mxPoint x="1210" y="545" />
              <mxPoint x="1210" y="439" />
            </Array>
          </mxGeometry>
        </mxCell>
        <mxCell id="3ODKdg1uj5AE_0qnP45V-54" style="edgeStyle=orthogonalEdgeStyle;rounded=0;orthogonalLoop=1;jettySize=auto;html=1;entryX=0;entryY=0.5;entryDx=0;entryDy=0;" edge="1" parent="1" source="3ODKdg1uj5AE_0qnP45V-31" target="3ODKdg1uj5AE_0qnP45V-53">
          <mxGeometry relative="1" as="geometry">
            <Array as="points">
              <mxPoint x="1210" y="545" />
              <mxPoint x="1210" y="654" />
            </Array>
          </mxGeometry>
        </mxCell>
        <mxCell id="3ODKdg1uj5AE_0qnP45V-57" style="edgeStyle=orthogonalEdgeStyle;rounded=0;orthogonalLoop=1;jettySize=auto;html=1;" edge="1" parent="1" source="3ODKdg1uj5AE_0qnP45V-31" target="3ODKdg1uj5AE_0qnP45V-56">
          <mxGeometry relative="1" as="geometry" />
        </mxCell>
        <mxCell id="3ODKdg1uj5AE_0qnP45V-64" style="edgeStyle=orthogonalEdgeStyle;rounded=0;orthogonalLoop=1;jettySize=auto;html=1;" edge="1" parent="1" source="3ODKdg1uj5AE_0qnP45V-31" target="3ODKdg1uj5AE_0qnP45V-61">
          <mxGeometry relative="1" as="geometry">
            <Array as="points">
              <mxPoint x="1210" y="545" />
              <mxPoint x="1210" y="770" />
            </Array>
          </mxGeometry>
        </mxCell>
        <mxCell id="3ODKdg1uj5AE_0qnP45V-31" value="&lt;b style=&quot;&quot;&gt;&lt;font style=&quot;font-size: 20px;&quot;&gt;FRPC&lt;/font&gt;&lt;/b&gt;" style="text;html=1;align=center;verticalAlign=middle;resizable=0;points=[];autosize=1;strokeColor=default;fillColor=none;fontSize=34;rounded=1;glass=0;fontFamily=Courier New;" vertex="1" parent="1">
          <mxGeometry x="1030" y="520" width="70" height="50" as="geometry" />
        </mxCell>
        <mxCell id="3ODKdg1uj5AE_0qnP45V-34" value="" style="shape=image;imageAspect=0;aspect=fixed;verticalLabelPosition=bottom;verticalAlign=top;image=https://upload.wikimedia.org/wikipedia/commons/2/29/Keycloak_Logo.png;" vertex="1" parent="1">
          <mxGeometry x="786.38" y="408.22" width="77.25" height="77.25" as="geometry" />
        </mxCell>
        <mxCell id="3ODKdg1uj5AE_0qnP45V-39" style="edgeStyle=orthogonalEdgeStyle;rounded=0;orthogonalLoop=1;jettySize=auto;html=1;entryX=0.003;entryY=0.508;entryDx=0;entryDy=0;entryPerimeter=0;" edge="1" parent="1" source="3ODKdg1uj5AE_0qnP45V-21" target="3ODKdg1uj5AE_0qnP45V-22">
          <mxGeometry relative="1" as="geometry" />
        </mxCell>
        <mxCell id="3ODKdg1uj5AE_0qnP45V-49" value="" style="image;points=[];aspect=fixed;html=1;align=center;shadow=0;dashed=0;image=img/lib/allied_telesis/storage/Datacenter_Server_Rack_Storage_Unit_Small.svg;" vertex="1" parent="1">
          <mxGeometry x="1600" y="511.9" width="77.4" height="67.2" as="geometry" />
        </mxCell>
        <mxCell id="3ODKdg1uj5AE_0qnP45V-59" style="edgeStyle=orthogonalEdgeStyle;rounded=0;orthogonalLoop=1;jettySize=auto;html=1;" edge="1" parent="1" source="3ODKdg1uj5AE_0qnP45V-50" target="3ODKdg1uj5AE_0qnP45V-49">
          <mxGeometry relative="1" as="geometry" />
        </mxCell>
        <mxCell id="3ODKdg1uj5AE_0qnP45V-50" value="" style="shape=image;imageAspect=0;aspect=fixed;verticalLabelPosition=bottom;verticalAlign=top;image=https://upcloud.com/media/matrix_logo-1-6.png;" vertex="1" parent="1">
          <mxGeometry x="1390" y="417.86" width="100" height="42.5" as="geometry" />
        </mxCell>
        <mxCell id="3ODKdg1uj5AE_0qnP45V-60" style="edgeStyle=orthogonalEdgeStyle;rounded=0;orthogonalLoop=1;jettySize=auto;html=1;" edge="1" parent="1" source="3ODKdg1uj5AE_0qnP45V-53" target="3ODKdg1uj5AE_0qnP45V-49">
          <mxGeometry relative="1" as="geometry" />
        </mxCell>
        <mxCell id="3ODKdg1uj5AE_0qnP45V-53" value="" style="shape=image;imageAspect=0;aspect=fixed;verticalLabelPosition=bottom;verticalAlign=top;image=https://goharbor.io/img/logos/harbor-icon-color.png;" vertex="1" parent="1">
          <mxGeometry x="1390" y="620" width="67.4" height="67.4" as="geometry" />
        </mxCell>
        <mxCell id="3ODKdg1uj5AE_0qnP45V-58" style="edgeStyle=orthogonalEdgeStyle;rounded=0;orthogonalLoop=1;jettySize=auto;html=1;" edge="1" parent="1" source="3ODKdg1uj5AE_0qnP45V-56" target="3ODKdg1uj5AE_0qnP45V-49">
          <mxGeometry relative="1" as="geometry" />
        </mxCell>
        <mxCell id="3ODKdg1uj5AE_0qnP45V-56" value="" style="shape=image;imageAspect=0;aspect=fixed;verticalLabelPosition=bottom;verticalAlign=top;image=https://global.synologydownload.com/download/Package/img/SynologyPhotos/1.6.2-0710/thumb_256.png;" vertex="1" parent="1">
          <mxGeometry x="1390" y="507.15" width="76.7" height="76.7" as="geometry" />
        </mxCell>
        <mxCell id="3ODKdg1uj5AE_0qnP45V-65" style="edgeStyle=orthogonalEdgeStyle;rounded=0;orthogonalLoop=1;jettySize=auto;html=1;" edge="1" parent="1" source="3ODKdg1uj5AE_0qnP45V-61" target="3ODKdg1uj5AE_0qnP45V-49">
          <mxGeometry relative="1" as="geometry" />
        </mxCell>
        <mxCell id="3ODKdg1uj5AE_0qnP45V-61" value="" style="shape=image;verticalLabelPosition=bottom;labelBackgroundColor=default;verticalAlign=top;aspect=fixed;imageAspect=0;image=https://zuul-ci.org/android-chrome-192x192.png;" vertex="1" parent="1">
          <mxGeometry x="1384.02" y="730" width="79.35" height="79.35" as="geometry" />
        </mxCell>
        <mxCell id="3ODKdg1uj5AE_0qnP45V-68" value="Actor" style="shape=umlActor;verticalLabelPosition=bottom;verticalAlign=top;html=1;outlineConnect=0;" vertex="1" parent="1">
          <mxGeometry x="-20" y="525" width="30" height="60" as="geometry" />
        </mxCell>
      </root>
    </mxGraphModel>
  </diagram>
</mxfile>
